<?xml version="1.0"?>
<svg xmlns:rdf="http://www.w3.org/1999/02/22-rdf-syntax-ns#" xmlns="http://www.w3.org/2000/svg" xmlns:cc="http://creativecommons.org/ns#" xmlns:xlink="http://www.w3.org/1999/xlink" xmlns:dc="http://purl.org/dc/elements/1.1/" xmlns:svg="http://www.w3.org/2000/svg" id="svg3954" viewBox="0 0 128 128" version="1.0">
  <defs id="defs3956">
    <filter id="filter3530">
      <feGaussianBlur id="feGaussianBlur3532" stdDeviation="1.0172855"/>
    </filter>
    <linearGradient id="linearGradient12641" x1="81.349" gradientUnits="userSpaceOnUse" y1="55.915" gradientTransform="translate(-549.1 -163.2)" x2="114.71" y2="140.3">
      <stop id="stop3536" stop-color="#fff" offset="0"/>
      <stop id="stop3538" stop-color="#fff" stop-opacity="0" offset="1"/>
    </linearGradient>
    <filter id="filter3500">
      <feGaussianBlur id="feGaussianBlur3502" stdDeviation="1.0208063"/>
    </filter>
    <linearGradient id="linearGradient12639" x1="75.485" gradientUnits="userSpaceOnUse" y1="216.27" gradientTransform="translate(-549.1 -163.2)" x2="150.18" y2="78.338">
      <stop id="stop3490" offset="0"/>
      <stop id="stop3492" stop-opacity="0" offset="1"/>
    </linearGradient>
    <linearGradient id="linearGradient12637" x1="150.07" gradientUnits="userSpaceOnUse" y1="69.702" gradientTransform="translate(-549.1 -163.2)" x2="153.64" y2="103.84">
      <stop id="stop3430" stop-color="#fff" offset="0"/>
      <stop id="stop3432" stop-color="#fff" stop-opacity="0" offset="1"/>
    </linearGradient>
    <linearGradient id="linearGradient12635" x1="-75.391" gradientUnits="userSpaceOnUse" y1="321.59" gradientTransform="translate(-549.1 -163.2)" x2="127.22" y2="102.7">
      <stop id="stop3415" offset="0"/>
      <stop id="stop3417" stop-opacity="0" offset="1"/>
    </linearGradient>
    <linearGradient id="linearGradient12633" x1="198.59" gradientUnits="userSpaceOnUse" y1="97.137" gradientTransform="translate(-549.1 -163.2)" x2="58.949" y2="147.26">
      <stop id="stop3470" stop-color="#d8d8d8" offset="0"/>
      <stop id="stop3476" stop-color="#f0f0f0" offset=".22455"/>
      <stop id="stop3478" stop-color="#fff" offset=".46812"/>
      <stop id="stop3480" stop-color="#f3f3f3" offset=".76308"/>
      <stop id="stop3472" stop-color="#d6d6d6" offset="1"/>
    </linearGradient>
    <linearGradient id="linearGradient12631" x1="215.04" gradientUnits="userSpaceOnUse" y1="74.194" gradientTransform="translate(-549.1 -163.2)" x2="47.782" y2="162.97">
      <stop id="stop3891" stop-color="#e1b73f" stop-opacity=".58431" offset="0"/>
      <stop id="stop3893" stop-color="#aa7d19" offset="1"/>
    </linearGradient>
    <linearGradient id="linearGradient12629" x1="664.32" gradientUnits="userSpaceOnUse" y1="393.51" gradientTransform="matrix(.31458 .0331 -.031703 .28489 -530.57 -223.1)" x2="255.14" y2="778.66">
      <stop id="stop3885" stop-color="#ffffda" stop-opacity=".6" offset="0"/>
      <stop id="stop3887" stop-color="#c5a100" stop-opacity=".71429" offset="1"/>
    </linearGradient>
    <linearGradient id="linearGradient12627" x1="59.492" xlink:href="#linearGradient1273" gradientUnits="userSpaceOnUse" y1="30.563" gradientTransform="matrix(1.6322 0 0 .91250 780.77 -155.56)" x2="33.266" y2="58.199"/>
    <linearGradient id="linearGradient12625" x1="11.968" xlink:href="#linearGradient1273" gradientUnits="userSpaceOnUse" y1="119.12" gradientTransform="matrix(1.6909 0 0 1.1619 765.7 -167.05)" x2="51.413" y2="80.482"/>
    <linearGradient id="linearGradient12623" x1="118.66" xlink:href="#linearGradient1273" gradientUnits="userSpaceOnUse" y1="45.701" gradientTransform="matrix(1.3645 0 0 1.0915 780.77 -155.56)" x2="90.286" y2="62.493"/>
    <linearGradient id="linearGradient12621" x1="17.697" gradientUnits="userSpaceOnUse" y1="120.74" gradientTransform="matrix(1.7016 0 0 .87527 780.77 -155.56)" x2="94.699" y2="120.74">
      <stop id="stop1324" stop-opacity=".77686" offset="0"/>
      <stop id="stop1325" stop-opacity="0" offset="1"/>
    </linearGradient>
    <linearGradient id="linearGradient12619" x1="77.599" gradientUnits="userSpaceOnUse" y1="20.687" gradientTransform="matrix(1.2402 0 0 1.2009 780.77 -155.56)" x2="53.031" y2="114.57">
      <stop id="stop1219" offset="0"/>
      <stop id="stop1321" stop-color="#323232" offset=".073256"/>
      <stop id="stop1320" offset=".65261"/>
      <stop id="stop1220" stop-color="#fff" offset="1"/>
    </linearGradient>
    <linearGradient id="linearGradient12615" x1="27.319" xlink:href="#linearGradient1222" gradientUnits="userSpaceOnUse" y1="170.27" gradientTransform="scale(1.0211 .97932)" x2="130.7" y2="28.121"/>
    <linearGradient id="linearGradient12613" x1="29.921" xlink:href="#linearGradient1222" gradientUnits="userSpaceOnUse" y1="167.66" gradientTransform="scale(1.0191 .98129)" x2="131.17" y2="28.449"/>
    <linearGradient id="linearGradient12611" x1="37.677" xlink:href="#linearGradient1222" gradientUnits="userSpaceOnUse" y1="159.47" gradientTransform="scale(1.0147 .98555)" x2="132.34" y2="29.318"/>
    <linearGradient id="linearGradient12609" x1="35.172" xlink:href="#linearGradient1222" gradientUnits="userSpaceOnUse" y1="162" gradientTransform="scale(1.0168 .98344)" x2="131.82" y2="29.11"/>
    <linearGradient id="linearGradient12607" x1="31.731" xlink:href="#linearGradient1222" gradientUnits="userSpaceOnUse" y1="165.85" gradientTransform="scale(1.0171 .98320)" x2="131.58" y2="28.562"/>
    <linearGradient id="linearGradient12605" x1="33.344" xlink:href="#linearGradient1222" gradientUnits="userSpaceOnUse" y1="164.18" gradientTransform="scale(1.0162 .98405)" x2="131.82" y2="28.775"/>
    <radialGradient id="radialGradient12603" fx="303.7" fy="93.75" gradientUnits="userSpaceOnUse" cy="281.25" cx="296.3" r="248.4">
      <stop id="stop827" stop-opacity=".95294" offset="0"/>
      <stop id="stop830" stop-opacity=".76078" offset=".36586"/>
      <stop id="stop847" stop-opacity=".52941" offset=".47107"/>
      <stop id="stop828" stop-color="#fff" stop-opacity="0" offset="1"/>
    </radialGradient>
    <linearGradient id="linearGradient12599" x1="346.53" gradientUnits="userSpaceOnUse" y1="351.67" gradientTransform="matrix(1.5928 -.014364 .010864 1.2263 2.3254 -176.32)" x2="332.69" y2="437.68">
      <stop id="stop6882" stop-color="#9dd2a5" offset="0"/>
      <stop id="stop6884" stop-color="#75bc7d" stop-opacity=".50588" offset=".24539"/>
      <stop id="stop6886" stop-color="#6ab573" stop-opacity=".34902" offset=".49077"/>
      <stop id="stop6888" stop-color="#73ad79" stop-opacity=".27843" offset=".74539"/>
      <stop id="stop6890" stop-color="#7f9c85" stop-opacity=".070588" offset="1"/>
    </linearGradient>
    <linearGradient id="linearGradient12597" x1="346.53" gradientUnits="userSpaceOnUse" y1="351.67" gradientTransform="matrix(1.7223 -.020223 .011748 1.7264 -42.274 -360.1)" x2="328.65" y2="448.08">
      <stop id="stop4456" stop-color="#d5d4d0" offset="0"/>
      <stop id="stop4464" stop-color="#f1f1f1" offset=".24539"/>
      <stop id="stop4462" stop-color="#fff" offset=".49077"/>
      <stop id="stop4466" stop-color="#f0f0f0" offset=".74539"/>
      <stop id="stop4458" stop-color="#d4d4d4" offset="1"/>
    </linearGradient>
    <linearGradient id="linearGradient12595" x1="336.35" gradientUnits="userSpaceOnUse" y1="336.5" gradientTransform="matrix(1.6926 .31126 -.31879 1.6983 95.769 -463.96)" x2="321.65" y2="448.71">
      <stop id="stop4242" stop-color="#eeeeed" offset="0"/>
      <stop id="stop4244" stop-color="#a6a6a6" offset="1"/>
    </linearGradient>
    <linearGradient id="linearGradient12565" x1="346.53" gradientUnits="userSpaceOnUse" y1="351.67" gradientTransform="matrix(1.5928 -.014364 .010864 1.2263 2.3254 -176.32)" x2="332.69" y2="437.68">
      <stop id="stop6794" stop-color="#9db8d2" offset="0"/>
      <stop id="stop6796" stop-color="#7592bc" stop-opacity=".50588" offset=".24539"/>
      <stop id="stop6798" stop-color="#6a87b5" stop-opacity=".34902" offset=".49077"/>
      <stop id="stop6800" stop-color="#7389ad" stop-opacity=".27843" offset=".74539"/>
      <stop id="stop6802" stop-color="#7f8e9c" stop-opacity=".070588" offset="1"/>
    </linearGradient>
    <linearGradient id="linearGradient1273">
      <stop id="stop1274" stop-color="#fff" offset="0"/>
      <stop id="stop1275" stop-color="#fff" stop-opacity="0" offset="1"/>
    </linearGradient>
    <linearGradient id="linearGradient1222">
      <stop id="stop1223" stop-opacity=".32231" offset="0"/>
      <stop id="stop1224" stop-opacity="0" offset="1"/>
    </linearGradient>
    <linearGradient id="linearGradient12531" x1="346.53" gradientUnits="userSpaceOnUse" y1="351.67" gradientTransform="matrix(1.5928 -.014364 .010864 1.2263 2.3254 -176.32)" x2="332.69" y2="437.68">
      <stop id="stop6970" stop-color="#d29d9e" offset="0"/>
      <stop id="stop6972" stop-color="#bc7575" stop-opacity=".50588" offset=".24539"/>
      <stop id="stop6974" stop-color="#b56b6a" stop-opacity=".34902" offset=".49077"/>
      <stop id="stop6976" stop-color="#ad7673" stop-opacity=".27843" offset=".74539"/>
      <stop id="stop6978" stop-color="#9c7f7f" stop-opacity=".070588" offset="1"/>
    </linearGradient>
    <filter id="filter5761">
      <feGaussianBlur id="feGaussianBlur5763" stdDeviation="1.301514"/>
    </filter>
    <linearGradient id="linearGradient12525" x1="78.742" gradientUnits="userSpaceOnUse" y1="77.996" gradientTransform="translate(-529.08 -219.59)" x2="26.839" y2="35.083">
      <stop id="stop3550" stop-color="#fff" offset="0"/>
      <stop id="stop3552" stop-color="#fff" stop-opacity="0" offset="1"/>
    </linearGradient>
    <filter id="filter3342" y="-.17679" width="1.0257" x="-.012874" height="1.3536">
      <feGaussianBlur id="feGaussianBlur3344" stdDeviation="0.73981434"/>
    </filter>
    <linearGradient id="linearGradient12523" x1="122.18" gradientUnits="userSpaceOnUse" y1="38.275" gradientTransform="translate(-549.1 -163.2)" x2="50.208" y2="94.39">
      <stop id="stop3356" stop-color="#fff" offset="0"/>
      <stop id="stop3358" stop-color="#fff" stop-opacity="0" offset="1"/>
    </linearGradient>
    <filter id="filter3384" y="-.021205" width="1.2382" x="-.11909" height="1.0424">
      <feGaussianBlur id="feGaussianBlur3386" stdDeviation="0.81591018"/>
    </filter>
    <linearGradient id="linearGradient12521" x1="-52.615" gradientUnits="userSpaceOnUse" y1="111.33" gradientTransform="matrix(1.0011 0 0 .97714 -428.23 -61.49)" x2="-89.169" y2="-160.23">
      <stop id="stop3370" offset="0"/>
      <stop id="stop3372" stop-opacity="0" offset="1"/>
    </linearGradient>
    <linearGradient id="linearGradient12519" x1="79.246" gradientUnits="userSpaceOnUse" y1="-126.4" gradientTransform="matrix(1 0 0 .66342 -549.1 -146.13)" x2="140.07" y2="166.59">
      <stop id="stop3447" stop-color="#fff" offset="0"/>
      <stop id="stop3449" stop-color="#fff" stop-opacity="0" offset="1"/>
    </linearGradient>
    <linearGradient id="linearGradient12517" x1="46.211" gradientUnits="userSpaceOnUse" y1="40.434" gradientTransform="translate(-549.1 -163.2)" x2="115.26" y2="167.01">
      <stop id="stop3873" stop-color="#d0ac44" offset="0"/>
      <stop id="stop3875" stop-color="#aa7d19" offset="1"/>
    </linearGradient>
    <linearGradient id="linearGradient12515" x1="218.06" gradientUnits="userSpaceOnUse" y1="352.41" gradientTransform="matrix(.30595 -.029586 .042229 .31115 -530.13 -128.34)" x2="274.43" y2="77.316">
      <stop id="stop3879" stop-color="#fed51b" offset="0"/>
      <stop id="stop3881" stop-color="#ffffda" offset="1"/>
    </linearGradient>
  </defs>
  <g id="layer1" transform="translate(-256 -139.79)">
    <g id="g12075" transform="matrix(.86110 0 0 .86110 851.99 606.6)">
      <g id="g12077" transform="translate(-1.7263 -1.5207)">
        <g id="g12079" transform="matrix(.76710 0 0 1 -289.8 -401.97)">
          <path id="path12081" stroke="url(#linearGradient12517)" stroke-width="1.5" fill="url(#linearGradient12515)" d="m-506.24-108.72l42.28-4.09c2.89-0.27 4.25 0.75 4.7 3.33l0.74 5.17 85.66-8.29c1.48-0.14 2.83 0.96 3.04 2.46l10.67 78.639c0.2 1.503-0.82 2.827-2.3 2.97l-132.17 12.782c-1.48 0.143-2.83-0.952-3.04-2.454l-11.88-87.547c-0.2-1.51 0.82-2.83 2.3-2.97z"/>
          <path id="path12083" opacity=".32114" fill="url(#linearGradient12519)" d="m-462.98-112.48c-0.31-0.01-0.64 0-1 0.02l-42.28 2.71c-1.48 0.1-2.51 0.98-2.31 1.97l7.58 38.833c10.62-6.466 25.44-17.117 46.54-19.01 41.26-3.662 62.91-10.743 84.71-15.203l-0.11-7.52c-0.21-1-1.56-1.73-3.03-1.64l-85.66 5.5-0.75-3.42c-0.39-1.5-1.48-2.21-3.69-2.24z"/>
          <path id="path12085" d="m-492.36-17.091c-1.48 0.14-2.83-0.93-3.04-2.398l-11.89-85.551c-0.21-1.47 0.82-2.76 2.3-2.9" filter="url(#filter3384)" stroke="url(#linearGradient12521)" stroke-width="1.4836" fill="none"/>
          <path id="path12087" d="m-507.13-107.5l42.28-4.09c2.89-0.27 4.25 0.75 4.7 3.33l0.74 5.17 85.67-8.29c1.47-0.14 2.83 0.96 3.03 2.46" filter="url(#filter3342)" stroke="url(#linearGradient12523)" stroke-width="1.5" fill="none"/>
          <rect id="rect12089" opacity=".85772" transform="matrix(.99454 -.10431 .10431 .99454 0 0)" ry="1.3321" height="6.7793" width="41.653" y="-157.33" x="-490.92" fill="url(#linearGradient12525)"/>
        </g>
        <g id="g12091" transform="matrix(.33072 .10594 -.10594 .33072 -745.25 -643.9)">
          <path id="path12093" d="m314.11 305.63l86.49-10.41c0.36-0.05 0.68 0.21 0.73 0.57l9.1 76.27c0.05 0.36-0.21 0.69-0.57 0.73l-86.44 10.32c-0.36 0.05-0.69-0.21-0.73-0.57l-9.16-76.18c-0.04-0.36 0.22-0.69 0.58-0.73z" transform="matrix(1.6668 .17434 -.18529 1.6771 19.288 -314.39)" filter="url(#filter5761)" stroke="#000" stroke-miterlimit="0" stroke-width="2.9518" fill="none"/>
          <path id="path12095" d="m481.72 248.73l151.92-0.64c0.64-0.01 1.16 0.5 1.16 1.14l2.3 132.98c0.01 0.64-0.5 1.16-1.14 1.17l-152.74 2.09c-0.64 0-1.16-0.5-1.16-1.14l-1.48-134.43c-0.01-0.64 0.5-1.16 1.14-1.17z" stroke="url(#linearGradient12595)" stroke-miterlimit="0" stroke-width="1.3796" fill="#fff"/>
          <path id="path12097" fill="url(#linearGradient12597)" d="m487.98 253.76l140.69-0.87c0.59-0.01 1.06 0.47 1.07 1.07l0.73 122.7c0 0.6-0.46 1.09-1.05 1.1l-140.04 1.92c-0.58 0.01-1.06-0.47-1.06-1.07l-1.38-123.75c-0.01-0.6 0.46-1.09 1.04-1.1z"/>
          <path id="path12099" fill="url(#linearGradient12531)" d="m492.7 259.7l130.81-0.65c0.54-0.01 0.98 0.33 0.98 0.76l0.67 87.15c0 0.43-0.43 0.77-0.97 0.78l-130.19 1.39c-0.54 0.01-0.98-0.33-0.99-0.76l-1.28-87.89c0-0.43 0.43-0.78 0.97-0.78z"/>
          <g id="g12101" opacity=".48374" transform="matrix(.43462 -.041031 .041031 .43462 178.4 373.93)">
            <g id="g12103" fill="url(#radialGradient12603)" stroke-width="4.431" stroke-dasharray="17.723827, 17.723827" transform="matrix(.87580 0 0 .86928 802.01 -170.83)">
              <path id="path12105" opacity=".69399" transform="matrix(.39407 0 0 .081554 -31.698 94.589)" d="m600 300a300 300 0 1 1 -600 0 300 300 0 1 1 600 0z"/>
              <path id="path12107" transform="matrix(.28066 0 0 .14868 4.0827 91.985)" d="m600 300a300 300 0 1 1 -600 0 300 300 0 1 1 600 0z"/>
            </g>
            <g id="g12109" stroke-width="1pt" fill-opacity=".07438" transform="matrix(1.8222 0 0 1.6627 620.95 -150.6)" fill-rule="evenodd">
              <path id="path12111" fill="url(#linearGradient12605)" d="m139.27 11.077c-2.05 0-4.11 0.772-5.69 2.344l-27.9 27.937c-1.54 1.541-2.35 3.553-2.38 5.563v0.125h0.07c0.53 2.034 14.33 4.615 15.87 6.156 2.33 2.328-8.92 4.048-6.59 6.375 2.32 2.328 14.07 4.485 16.4 6.813 2.33 2.327-4.76 4.797-2.43 7.125 2.32 2.327 10.13-0.572 8.71 5.5 3.15 3.143 9.71 1.643 14.1-1.5 2.33-2.328-4.45-2.11-2.13-4.438 2.33-2.327 8.21-2.338 13.16-7.906-1.99-3.099-8.52-4.423-6.19-6.75 2.33-2.328 6.83-1.16 16.6-5.594 4.76-2.165 4.39-3.788 4.37-5.781v-0.125h-0.03c-0.03-2.01-0.8-4.022-2.34-5.563l-27.94-27.937c-1.57-1.572-3.61-2.344-5.66-2.344zm-0.25 3.625c0.91 0.024 1.65 0.72 3.1 1.656l13.18 9.782c0.15 0.093 0.28 0.181 0.41 0.281s0.27 0.206 0.37 0.312c0.11 0.106 0.19 0.233 0.29 0.344 0.09 0.111 0.17 0.229 0.25 0.344 0.07 0.115 0.13 0.226 0.18 0.344 0.06 0.118 0.09 0.223 0.13 0.343 0.03 0.121 0.07 0.254 0.09 0.375 0.02 0.122 0.03 0.253 0.03 0.375l-7.81-3.781-0.78 5.906-4.31-2.031-6.63 4.438-2.56-8.75-3.25 7.656-9.16 0.906 0.1-4.062c0-0.977 5.29-7.809 8.5-9.438l5.87-4.219c0.87-0.561 1.45-0.795 2-0.781zm-12.12 39.938c4.16 1.078 8.78 2.474 12.5 2.5l0.15 1.687c-3.18-0.328-9.91-1.877-11.5-2.687l-1.15-1.5zm43.34 7.406c-0.63-0.02-1.24 0.043-1.69 0.156-0.85 0.213-4.99 0.311-4.65 2.969 3.65 1.328 9.3 2.345 9.97-0.313 0.49-1.993-1.73-2.751-3.63-2.812zm-47.78 5.406c-0.58-0.067-1.14 0.004-1.69 0.281-2.2 1.11-3.68 3.575-1.62 4.594 2.05 1.02 3.51-0.141 5.31-1.406s1.75-1.512 1.62-2c-0.25 0.066-1.9-1.268-3.62-1.469zm40.19 0.438c-1.66 0.664-1.65 2.972-0.32 3.968 1.33 0.997 3 0.352 3.66-0.312s-0.02-2.992-3.34-3.656z"/>
              <path id="path12113" fill="url(#linearGradient12607)" d="m137.97 10.719c-3.27 0.342-5.52 3.136-7.81 5.222-8.39 8.563-16.96 16.971-25.28 25.588-1.35 1.729-1.9 3.765-2.16 5.909 4.72 3.448 10.98 3.468 16 6.343-1.42 2.233-4.86 2.147-6.41 4.373-1.36 0.912 0.56 2.409 1.57 2.753 4.2 2.119 8.93 2.932 13.1 5.162 2.16 0.154 2.01 2.328 0.58 3.397-1.14 1.144-2.89 3.046-1.16 4.473 2.13 1.477 4.95 1.072 7.32 1.936 1.67 0.914 0.48 2.567 1.62 3.719 2.87 2.246 6.84 1.85 10.03 0.568 1.64-0.483 3.13-1.55 4.57-2.381 1.38-1.613-0.78-2.767-2-3.437-0.81-1.336 1.87-1.873 2.79-2.509 3.5-1.419 6.9-3.063 9.59-5.759 1.68-1.036-0.78-2.51-1.57-3.326-1.45-1.079-3.37-1.744-4.28-3.406 2.36-2.607 6.31-2.121 9.36-3.457 3.66-0.931 7.14-2.559 10.36-4.446 2.13-1.586 1.57-4.347 1.15-6.583-1.51-4.711-6.01-7.512-9.19-11.076-7.15-7.044-14.18-14.224-21.39-21.185-1.93-1.48-4.36-2.272-6.79-1.878zm2.19 5c5.17 3.793 10.36 7.573 15.53 11.375 0.11 1.034-2.72-1.1-3.8-1.39-1.33-0.393-3.66-2.713-3.29 0.032-0.57 1.118 0.29 4.878-1.35 4.013-1.48-0.797-3.45-1.982-4.85-0.355-1.52 1.014-3.04 2.029-4.56 3.044-0.91-3.167-1.83-6.335-2.75-9.5-1.26 2.932-2.49 5.875-3.75 8.812-2.74 0.271-5.48 0.542-8.22 0.812-0.18-2.03 0.26-4.07 1.67-5.51 3.05-4.886 8.12-7.871 12.7-11.124 0.89-0.529 1.69-0.462 2.67-0.209zm-8.1 40.843c2.2 0.57 4.49 0.683 6.72 1.063-0.85 1.017-2.95-0.304-4.28-0.348-1.74-0.381-3.48-0.75-5.12-1.465 0.89 0.25 1.79 0.5 2.68 0.75zm36.44 5.063c-2.02 0.47-4.9 0.744-5.16 3.344 0.67 0.965 2.78 1.324 4.14 1.583 2.13 0.34 5.04 1.107 6.54-0.879 1.28-1.78-0.63-4.045-2.61-3.918-0.97-0.328-1.92-0.252-2.91-0.13zm-47.84 5.531c-1.48 1.017-3.49 2.551-2.85 4.594 1.51 2.193 4.64 1.578 6.37-0.005 1.14-0.65 3.05-1.896 2.16-3.339-1.81-0.788-3.63-1.985-5.68-1.25zm41.59 0.313c-1.26 0.836-1.77 2.587-0.9 3.852 0.67 1.683 2.92 1.859 4.3 0.942 1.83-0.563 1.03-2.915-0.31-3.605-0.68-0.843-2.22-1.252-3.09-1.189z"/>
              <path id="path12115" fill="url(#linearGradient12609)" d="m137.09 12.062c-3.64 1.596-6.19 4.993-9.06 7.698-7.38 7.517-14.91 14.908-22.21 22.485-1.05 1.339-1.62 2.868-1.88 4.536 4.08 2.881 9.41 3.033 13.83 5.253 1.47 0.146 3.06 1.63 1.71 2.881-1.75 1.799-4.83 1.954-6.29 4.023 3.8 2.74 8.53 3.377 12.73 5.262 1.43 1.049 4.02 1.142 4.08 3.331-0.39 1.938-2.32 3.064-3.16 4.813 1.83 2.572 5.58 1.183 7.98 2.851 1.3 0.804 0.94 2.524 1.52 3.591 3 2.198 7.23 1.237 10.26-0.523 0.98-0.332 3.66-1.525 1.65-2.396-1.46-0.328-2.68-2.075-1.26-3.191 3.6-2.748 8.54-3.376 11.76-6.763 1.69-1.276-1.23-2.401-2.1-3.128-1.33-0.98-3.63-1.92-3.34-3.879 2.21-3.07 6.45-2.656 9.67-3.997 3.66-0.897 7.2-2.466 10.42-4.323 2.05-1.819 1-4.732 0.3-6.911-3.68-5.169-8.77-9.146-13.09-13.769-5.55-5.422-10.93-11.075-16.58-16.354-2.02-1.285-4.35-2.396-6.76-1.522l-0.18 0.032zm2.16 2.094c5.12 2.418 9.19 6.46 13.81 9.701 1.74 1.561 4.69 2.605 4.6 5.362-1.68 0.402-3.14-1.31-4.74-1.752-1.44-0.487-3.86-2.778-3.46 0.152-0.51 1.057 0.22 4.477-1.16 3.91-1.44-0.612-3.05-1.787-4.57-1.648-2.17 1.479-4.35 2.945-6.51 4.431-0.82-2.658-1.58-5.334-2.38-8-1.05 2.12-1.86 4.65-3.06 6.532-3.26 0.323-6.52 0.645-9.78 0.968 0.03-2.373-0.41-5.061 1.45-6.911 2.94-4.972 8.09-7.964 12.52-11.37 1.09-0.4 2.2-1.175 3.28-1.375zm-12.91 39.75c4.48 1.193 8.99 2.174 13.6 2.719 0.88 1.755-0.32 3.265-2.19 2.406-3.4-0.689-6.8-1.62-10.13-2.531-0.24-0.482-2.89-3.167-1.28-2.594zm42.35 8.844c-1.42 0.396-3.5 0.273-4 2 2.73 0.522 5.67 1.877 8.34 0.438 0.92-1.854-1.81-2.38-3.11-2.481-0.41 0.015-0.82 0.029-1.23 0.043zm-47.72 5.5c-1.09 0.844-3.25 2.891-0.96 3.618 2.11 0.51 3.71-1.294 5.27-2.399-1.11-1.089-2.8-1.501-4.31-1.219zm41.28 0.688c-0.98 1.9 1.79 3.77 3.08 2.091 0.66-1.061-2.22-2.923-3.08-2.091z"/>
              <path id="path12117" fill="url(#linearGradient12611)" d="m137.5 12.562c-5.94 3.322-10.02 8.951-14.91 13.545-5.52 5.694-11.25 11.226-16.63 17.02-0.69 1.105-2.06 3.589-0.07 3.984 4.59 2.415 10.18 2.786 14.36 5.827 0.95 2.32-1.93 3.267-3.47 4.197-1.63 0.512-3.52 2.04-0.79 2.601 4.53 2.443 9.92 3.076 14.07 6.233 1.34 2.187-1.18 4.119-2.1 5.848 0.02 1.79 2.65 1.393 3.89 1.878 2.16 0.166 4.46 1.372 4.68 3.743 0.72 1.877 3.29 1.939 5.03 1.937 2.32-0.293 4.33-1.526 6.44-2.437-0.11-1.454-2.53-1.595-2.22-3.376 1.87-2.993 5.69-3.627 8.55-5.351 1.62-0.703 3.08-1.774 4.17-3.18-1.8-2.138-5.38-2.824-5.73-6.005 0.36-1.114 2.13-2.17 3.38-2.711 5.32-2.009 11.15-2.785 16.03-5.879 2.57-1.039 1.72-4.255 0.97-6.268-2.15-3.024-5.06-5.625-7.51-8.487-2.52-2.587-5.14-5.07-7.7-7.619 1.05 1.533-0.93 2.271-2.08 1.315-1.9-0.831-3.8-1.65-5.74-2.408-0.07 1.665-0.42 3.284-0.78 4.906-2.39 0.642-4.71-2.515-6.89-0.47-1.79 0.994-3.19 2.669-5.11 3.294-1.37-0.249-1.19-3.042-1.89-4.33-0.42-2.891-1.14-2.255-2.01 0.115-0.8 1.499-1.15 3.595-3.32 3.093-2.89 0.287-5.79 0.573-8.68 0.861 0.02-2.98-0.27-6.344 2.09-8.598 3.29-4.651 8.16-7.82 12.7-11.047 1.52-0.706 3.41-1.755 4.82-0.256 3.73 2.557 7.52 4.955 11.01 7.807-2.99-2.83-5.81-5.923-8.91-8.592-1.77-0.88-3.63-1.962-5.65-1.19zm-11.09 40.782c4.68 0.923 9.37 1.878 14.06 2.781 0.19 1.366 0.43 3.643-1.57 3.592-3.91-0.746-7.86-1.834-11.71-2.842-0.58-0.919-2.35-2.318-1.78-3.25 0.32-0.048 0.67-0.333 1-0.281zm40.12 10.468c-1.63 1.019 2.19 1.068 3.07 1.35 1.22 0.352 4.2-0.517 1.9-1.568-1.72-0.377-3.29-0.338-4.97 0.218zm-45.72 5.376c-2.04 1.31-0.17 2.862 1.49 1.593 1.92-0.234 1.96-2.197-0.16-1.924-0.51-0.07-0.94-0.051-1.33 0.331zm41.97 1.062c2.26 2.16 1.72-1.667 0-0.462v0.462z"/>
              <path id="path12119" fill="url(#linearGradient12613)" d="m137.25 10.312c-2.68 0.5-4.58 2.739-6.6 4.404-8.87 8.736-17.53 17.721-26.27 26.565-1.21 2.007-1.91 4.175-2.32 6.469 3.77 1.879 7.59 3.619 11.69 4.627 1 0.624 4.4 0.835 3.28 2.248-2.15 1.146-4.85 1.921-5.78 4.437 1.82 3.199 5.88 3.387 8.89 4.91 2.53 0.999 5.05 1.998 7.58 2.997 0.08 2.64-0.59 1.756-1.92 0.573-2.04-1.034-5.06-1.982-6.66 0.258-1.45 0.885-2.58 3.14-1.47 4.562 2.07 2.248 5.63 1.197 7.55-0.731 0.17-0.179-0.27 2.698 1.34 2.995 2.19 1.262 5 0.909 7.19 2.155 0.42 1.856 1.17 3.958 3.35 4.249 3.44 1.39 7.32 0.367 10.4-1.445 1.32-0.713 3.83-1.241 3.25-3.21-0.04-1.294-3.21-2.074-1.44-3.281 4.25-1.89 8.6-3.884 11.88-7.25 0.8-2.113-2.12-2.994-3.25-4.282-1.36-1.144-3.64-2.366-0.77-3.154 5.28-1.98 11.13-2.756 15.97-5.872 2.56-0.812 3.61-3.71 2.88-6.154-0.03-2.461-1.66-4.498-3.02-6.408-4.76-5.421-10.27-10.135-15.27-15.326-4.35-4.194-8.53-8.649-12.99-12.683-2.25-1.446-4.84-1.918-7.49-1.653zm3.16 6.313c3.97 2.79 7.85 5.746 11.81 8.594-1.22-0.748-2.51-1.211-3.94-1.313-0.2 1.711-0.44 3.416-0.66 5.125-1.85-0.551-3.94-1.667-5.6-0.087-1.22 0.378-3.3 3.085-3.99 2.003-0.94-3.232-1.87-6.466-2.81-9.697-1.43 3.318-2.83 6.647-4.25 9.969-2.41 0.239-4.81 0.479-7.22 0.719-0.01-3.434 2.66-5.996 4.76-8.4 3.09-2.66 6.33-5.258 9.86-7.272 0.69-0.338 1.36 0.235 2.04 0.359zm24.71 45.313c-1.17 0.745-3.07 2.226-1.81 3.687 2.47 1.612 5.54 1.721 8.38 1.814 2.11-0.059 4.19-2.556 2.75-4.473-1.34-2.303-4.39-1.789-6.62-1.765-0.9 0.246-1.8 0.491-2.7 0.737zm-3.09 5.093c-1.19 0.969-1.74 2.664-1.27 4.227 0.41 1.781 2.46 2.237 4.03 1.734 2.35 0.189 3.3-3.167 1.34-4.339-1.16-0.984-2.47-1.964-4.1-1.622z"/>
              <path id="path12121" fill="url(#linearGradient12615)" d="m136.88 9.5625c-5.23 2.2065-8.73 6.8225-12.72 10.654-6.81 6.901-13.66 13.768-20.44 20.69-0.87 2.427-1.72 4.858-2.6 7.282 4.81 2.095 9.64 4.088 14.63 5.718-0.31 1.458-2.75 1.286-3.51 2.682-1.34 0.857-2.22 3.198-0.34 3.98 2.96 2.789 7.04 3.795 10.72 5.307-2.89-0.841-4.81 2.216-5.93 4.375-0.68 2.7 2.42 4.401 4.75 4.009 1.44 0.52 3.43-2.365 3.63-0.13 2.15 2.445 6.28 1.869 8.53 4.16 0.72 2.013 2.39 3.697 4.63 3.718 2.03 0.582 4.01 0.307 5.96-0.393 2.28-0.515 4.45-1.654 6.45-2.79 1.51-1.069 1.18-3.477-0.2-4.512-0.21-1.607 2.3-1.629 3.32-2.492 2.74-1.256 5.15-3.016 7.46-4.914-1.02 1.47-1.41 3.41-0.84 5.082 0.97 2.28 3.84 1.668 5.78 1.543 1.93-0.92 2.68-3.9 0.72-5.187-2.85-1.762-0.41-0.941 1.4-0.432 2.23 0.133 5.03 0.836 6.55-1.331 1.69-1.628 0.63-4.195-0.99-5.456-2.01-1.072-4.43-0.76-6.61-0.656-1.96 0.347-3.45 1.512-4.67 3.031-1.49 1.193 1.72 3.392-0.05 2.951-1.27 0.22 0.29-2.328-1.24-3.158-1-1.463-2.68-2.376-3.93-3.637 6.03-2.916 13.08-3.706 18.47-7.906 1.98-2.346 1.08-5.452 0.5-8.125-3.59-6.548-9.58-11.243-14.73-16.533-5.48-5.337-10.92-10.721-16.42-16.03-2.4-0.963-4.85-1.6272-7.45-1.4936-0.27 0.026-0.58-0.0978-0.83-0.0059zm7.12 10.562c1.42 1.092 2.86 2.165 4.28 3.25-1.31 1.002-0.85 2.932-1.31 4.344-1.96-0.531-4.09-0.602-5.68 0.849-0.99 0.833-2.83 1.755-2.98-0.184-0.88-3.032-1.72-6.08-2.62-9.103 1.53-0.463 3.09-2.937 4.59-1.535l3.72 2.379zm-13.47 10.281c-1.84 0.188-3.69 0.375-5.53 0.563 0.71-3.517 3.62-5.979 6.09-8.337 1.36-0.984 2.63-2.1 4.03-3.007-1.53 3.594-3.06 7.187-4.59 10.781z"/>
            </g>
            <path id="path12123" stroke-width="1pt" fill-rule="evenodd" fill="url(#linearGradient12619)" d="m876.53-143.09c-3.74 0-7.5 1.41-10.36 4.27l-50.85 50.908c-2.81 2.807-4.28 6.474-4.33 10.136v0.228h0.11c0.98 3.707 26.12 8.41 28.93 11.218 4.24 4.241-16.26 7.375-12.02 11.617 4.25 4.241 25.66 8.172 29.9 12.413 4.24 4.242-8.68 8.742-4.44 12.983 4.24 4.242 18.47-1.04 15.89 10.023 5.72 5.727 17.68 2.994 25.68-2.734 4.24-4.241-8.12-3.844-3.87-8.086 4.24-4.241 14.95-4.261 23.97-14.406-3.63-5.648-15.52-8.059-11.28-12.3 4.24-4.242 12.45-2.113 30.24-10.193 8.69-3.945 8.01-6.902 7.97-10.535v-0.228h-0.05c-0.06-3.662-1.47-7.329-4.27-10.136l-50.91-50.908c-2.87-2.86-6.57-4.27-10.31-4.27zm-22.55 79.38c7.58 1.965 16.01 4.509 22.78 4.555l0.28 3.075c-5.79-0.597-18.06-3.421-20.95-4.897l-2.11-2.733zm78.98 13.495c-1.16-0.037-2.25 0.079-3.07 0.285-1.55 0.388-9.09 0.566-8.49 5.41 6.66 2.42 16.96 4.274 18.17-0.57 0.91-3.632-3.14-5.014-6.61-5.125zm-87.06 9.851c-1.05-0.122-2.08 0.007-3.08 0.513-4.01 2.021-6.71 6.513-2.96 8.371 3.74 1.857 6.4-0.258 9.68-2.563 3.28-2.304 3.2-2.755 2.96-3.644-0.45 0.121-3.46-2.31-6.6-2.677zm73.22 0.798c-3.02 1.21-2.99 5.416-0.56 7.231 2.42 1.817 5.45 0.642 6.66-0.569s-0.04-5.452-6.1-6.662z"/>
            <path id="path12125" stroke-width="1pt" fill-rule="evenodd" fill="url(#linearGradient12621)" d="m812.19-83.575c-0.83 1.832-1.28 3.789-1.31 5.751v0.228h0.12c0.93 3.547 23.51 7.981 27.95 10.819 1.97-1.166 3.25-2.388 1.94-3.701-2.81-2.808-27.95-7.511-28.93-11.218h-0.11v-0.228c0.01-0.564 0.27-1.09 0.34-1.651zm129.72 7.403c-1 1.575-2.91 3.176-6.95 5.011-17.79 8.08-25.99 5.951-30.24 10.193-1.28 1.285-0.82 2.383 0.18 3.473 4.49-3.174 12.57-2.062 29.09-9.566 7.51-3.409 7.94-6.105 7.92-9.111zm-87.07 8.314l2.11 2.733c2.89 1.476 15.16 4.3 20.95 4.897l-0.28-3.075c-6.77-0.046-15.2-2.59-22.78-4.555zm-25.11 9.452c-1.9 1.148-3.11 2.354-1.82 3.645 4.24 4.241 25.65 8.172 29.89 12.413 0.19 0.187 0.16 0.382 0.29 0.57 1.32-1.568 2.21-3.145 0.68-4.67-4.09-4.087-23.79-7.892-29.04-11.958zm93.96 10.079c-1.46 0.757-2.64 1.824-2.39 3.758 6.65 2.421 16.95 4.275 18.16-0.569 0.24-0.942 0.11-1.735-0.23-2.392-2.87 2.323-9.99 1.026-15.54-0.797zm-10.48 2.05c-8.35 7.422-17.37 8.201-21.18 12.015-1.54 1.535-0.67 2.373 0.57 3.132 4.86-3.26 14.24-4.222 22.43-13.439-0.42-0.653-1.22-1.133-1.82-1.708zm4.73 7.517c-1.76 1.702-1.53 4.848 0.51 6.377 2.42 1.817 5.45 0.642 6.66-0.569 0.62-0.622 0.54-2.016-0.46-3.417-1.47 0.761-3.41 1.252-5.23-0.114-0.77-0.576-1.22-1.391-1.48-2.277zm-67.14 0.227c-0.2 0.148-0.16 0.176-0.4 0.342-3.28 2.305-5.94 4.42-9.68 2.563-0.78-0.389-1.1-0.966-1.37-1.538-1.66 2.053-2.07 4.412 0.4 5.638 3.75 1.857 6.4-0.258 9.68-2.563 3.29-2.304 3.2-2.755 2.96-3.644-0.15 0.041-0.93-0.425-1.59-0.798zm3.24 4.499c-1.31 1.568-2.2 3.145-0.68 4.669 4.24 4.242 18.47-1.04 15.89 10.022 5.73 5.728 17.68 2.995 25.68-2.733 1.56-1.562 0.66-2.421-0.63-3.189-7.93 5.013-18.71 7.199-24.08 1.823 2.58-11.063-11.65-5.781-15.89-10.023-0.19-0.186-0.16-0.381-0.29-0.569z"/>
            <path id="path12127" d="m901.81-118.46l30.83 33.117s9.18 9.837 1.96 13.772c-7.21 3.934-29.18 9.837-29.18 9.837l-39.93-57.496 36.32 0.77z" fill-opacity=".75" fill-rule="evenodd" stroke-width="1pt" fill="url(#linearGradient12623)"/>
            <path id="path12129" d="m854.35-123.48l-28.86 33.113s-11.15 9.837-3.93 13.771c7.21 3.935 54.76 20.002 88.2 14.1l-38.36-57.384-17.05-3.6z" fill-opacity=".75" fill-rule="evenodd" stroke-width="1pt" fill="url(#linearGradient12625)"/>
            <path id="path12131" stroke-width="1pt" fill-rule="evenodd" fill="url(#linearGradient12627)" d="m877.88-137.44c4.22 0.03 21.96 17.28 27.03 20.84 5.08 3.56 3.89 5.9 3.89 6.12l-14.24-6.89-1.42 10.76-7.86-3.7-12.07 8.09-4.67-15.95-5.92 13.95-16.69 1.65 0.17-7.4 24.65-24.26c1.79-1.76 2.98-3.24 7.13-3.21z"/>
          </g>
        </g>
        <g id="g12133" transform="matrix(.30863 -.18524 .18524 .30863 -873.11 -462.67)">
          <path id="path12135" d="m314.11 305.63l86.49-10.41c0.36-0.05 0.68 0.21 0.73 0.57l9.1 76.27c0.05 0.36-0.21 0.69-0.57 0.73l-86.44 10.32c-0.36 0.05-0.69-0.21-0.73-0.57l-9.16-76.18c-0.04-0.36 0.22-0.69 0.58-0.73z" transform="matrix(1.6668 .17434 -.18529 1.6771 19.288 -314.39)" filter="url(#filter5761)" stroke="#000" stroke-miterlimit="0" stroke-width="2.9518" fill="none"/>
          <path id="path12137" d="m481.72 248.73l151.92-0.64c0.64-0.01 1.16 0.5 1.16 1.14l2.3 132.98c0.01 0.64-0.5 1.16-1.14 1.17l-152.74 2.09c-0.64 0-1.16-0.5-1.16-1.14l-1.48-134.43c-0.01-0.64 0.5-1.16 1.14-1.17z" stroke="url(#linearGradient12595)" stroke-miterlimit="0" stroke-width="1.3796" fill="#fff"/>
          <path id="path12139" fill="url(#linearGradient12597)" d="m487.98 253.76l140.69-0.87c0.59-0.01 1.06 0.47 1.07 1.07l0.73 122.7c0 0.6-0.46 1.09-1.05 1.1l-140.04 1.92c-0.58 0.01-1.06-0.47-1.06-1.07l-1.38-123.75c-0.01-0.6 0.46-1.09 1.04-1.1z"/>
          <path id="path12141" fill="url(#linearGradient12565)" d="m492.7 259.7l130.81-0.65c0.54-0.01 0.98 0.33 0.98 0.76l0.67 87.15c0 0.43-0.43 0.77-0.97 0.78l-130.19 1.39c-0.54 0.01-0.98-0.33-0.99-0.76l-1.28-87.89c0-0.43 0.43-0.78 0.97-0.78z"/>
          <g id="g12143" opacity=".48374" transform="matrix(.43462 -.041031 .041031 .43462 178.4 373.93)">
            <g id="g12145" fill="url(#radialGradient12603)" stroke-width="4.431" stroke-dasharray="17.723827, 17.723827" transform="matrix(.87580 0 0 .86928 802.01 -170.83)">
              <path id="path12147" opacity=".69399" transform="matrix(.39407 0 0 .081554 -31.698 94.589)" d="m600 300a300 300 0 1 1 -600 0 300 300 0 1 1 600 0z"/>
              <path id="path12149" transform="matrix(.28066 0 0 .14868 4.0827 91.985)" d="m600 300a300 300 0 1 1 -600 0 300 300 0 1 1 600 0z"/>
            </g>
            <g id="g12151" stroke-width="1pt" fill-opacity=".07438" transform="matrix(1.8222 0 0 1.6627 620.95 -150.6)" fill-rule="evenodd">
              <path id="path12153" fill="url(#linearGradient12605)" d="m139.27 11.077c-2.05 0-4.11 0.772-5.69 2.344l-27.9 27.937c-1.54 1.541-2.35 3.553-2.38 5.563v0.125h0.07c0.53 2.034 14.33 4.615 15.87 6.156 2.33 2.328-8.92 4.048-6.59 6.375 2.32 2.328 14.07 4.485 16.4 6.813 2.33 2.327-4.76 4.797-2.43 7.125 2.32 2.327 10.13-0.572 8.71 5.5 3.15 3.143 9.71 1.643 14.1-1.5 2.33-2.328-4.45-2.11-2.13-4.438 2.33-2.327 8.21-2.338 13.16-7.906-1.99-3.099-8.52-4.423-6.19-6.75 2.33-2.328 6.83-1.16 16.6-5.594 4.76-2.165 4.39-3.788 4.37-5.781v-0.125h-0.03c-0.03-2.01-0.8-4.022-2.34-5.563l-27.94-27.937c-1.57-1.572-3.61-2.344-5.66-2.344zm-0.25 3.625c0.91 0.024 1.65 0.72 3.1 1.656l13.18 9.782c0.15 0.093 0.28 0.181 0.41 0.281s0.27 0.206 0.37 0.312c0.11 0.106 0.19 0.233 0.29 0.344 0.09 0.111 0.17 0.229 0.25 0.344 0.07 0.115 0.13 0.226 0.18 0.344 0.06 0.118 0.09 0.223 0.13 0.343 0.03 0.121 0.07 0.254 0.09 0.375 0.02 0.122 0.03 0.253 0.03 0.375l-7.81-3.781-0.78 5.906-4.31-2.031-6.63 4.438-2.56-8.75-3.25 7.656-9.16 0.906 0.1-4.062c0-0.977 5.29-7.809 8.5-9.438l5.87-4.219c0.87-0.561 1.45-0.795 2-0.781zm-12.12 39.938c4.16 1.078 8.78 2.474 12.5 2.5l0.15 1.687c-3.18-0.328-9.91-1.877-11.5-2.687l-1.15-1.5zm43.34 7.406c-0.63-0.02-1.24 0.043-1.69 0.156-0.85 0.213-4.99 0.311-4.65 2.969 3.65 1.328 9.3 2.345 9.97-0.313 0.49-1.993-1.73-2.751-3.63-2.812zm-47.78 5.406c-0.58-0.067-1.14 0.004-1.69 0.281-2.2 1.11-3.68 3.575-1.62 4.594 2.05 1.02 3.51-0.141 5.31-1.406s1.75-1.512 1.62-2c-0.25 0.066-1.9-1.268-3.62-1.469zm40.19 0.438c-1.66 0.664-1.65 2.972-0.32 3.968 1.33 0.997 3 0.352 3.66-0.312s-0.02-2.992-3.34-3.656z"/>
              <path id="path12155" fill="url(#linearGradient12607)" d="m137.97 10.719c-3.27 0.342-5.52 3.136-7.81 5.222-8.39 8.563-16.96 16.971-25.28 25.588-1.35 1.729-1.9 3.765-2.16 5.909 4.72 3.448 10.98 3.468 16 6.343-1.42 2.233-4.86 2.147-6.41 4.373-1.36 0.912 0.56 2.409 1.57 2.753 4.2 2.119 8.93 2.932 13.1 5.162 2.16 0.154 2.01 2.328 0.58 3.397-1.14 1.144-2.89 3.046-1.16 4.473 2.13 1.477 4.95 1.072 7.32 1.936 1.67 0.914 0.48 2.567 1.62 3.719 2.87 2.246 6.84 1.85 10.03 0.568 1.64-0.483 3.13-1.55 4.57-2.381 1.38-1.613-0.78-2.767-2-3.437-0.81-1.336 1.87-1.873 2.79-2.509 3.5-1.419 6.9-3.063 9.59-5.759 1.68-1.036-0.78-2.51-1.57-3.326-1.45-1.079-3.37-1.744-4.28-3.406 2.36-2.607 6.31-2.121 9.36-3.457 3.66-0.931 7.14-2.559 10.36-4.446 2.13-1.586 1.57-4.347 1.15-6.583-1.51-4.711-6.01-7.512-9.19-11.076-7.15-7.044-14.18-14.224-21.39-21.185-1.93-1.48-4.36-2.272-6.79-1.878zm2.19 5c5.17 3.793 10.36 7.573 15.53 11.375 0.11 1.034-2.72-1.1-3.8-1.39-1.33-0.393-3.66-2.713-3.29 0.032-0.57 1.118 0.29 4.878-1.35 4.013-1.48-0.797-3.45-1.982-4.85-0.355-1.52 1.014-3.04 2.029-4.56 3.044-0.91-3.167-1.83-6.335-2.75-9.5-1.26 2.932-2.49 5.875-3.75 8.812-2.74 0.271-5.48 0.542-8.22 0.812-0.18-2.03 0.26-4.07 1.67-5.51 3.05-4.886 8.12-7.871 12.7-11.124 0.89-0.529 1.69-0.462 2.67-0.209zm-8.1 40.843c2.2 0.57 4.49 0.683 6.72 1.063-0.85 1.017-2.95-0.304-4.28-0.348-1.74-0.381-3.48-0.75-5.12-1.465 0.89 0.25 1.79 0.5 2.68 0.75zm36.44 5.063c-2.02 0.47-4.9 0.744-5.16 3.344 0.67 0.965 2.78 1.324 4.14 1.583 2.13 0.34 5.04 1.107 6.54-0.879 1.28-1.78-0.63-4.045-2.61-3.918-0.97-0.328-1.92-0.252-2.91-0.13zm-47.84 5.531c-1.48 1.017-3.49 2.551-2.85 4.594 1.51 2.193 4.64 1.578 6.37-0.005 1.14-0.65 3.05-1.896 2.16-3.339-1.81-0.788-3.63-1.985-5.68-1.25zm41.59 0.313c-1.26 0.836-1.77 2.587-0.9 3.852 0.67 1.683 2.92 1.859 4.3 0.942 1.83-0.563 1.03-2.915-0.31-3.605-0.68-0.843-2.22-1.252-3.09-1.189z"/>
              <path id="path12157" fill="url(#linearGradient12609)" d="m137.09 12.062c-3.64 1.596-6.19 4.993-9.06 7.698-7.38 7.517-14.91 14.908-22.21 22.485-1.05 1.339-1.62 2.868-1.88 4.536 4.08 2.881 9.41 3.033 13.83 5.253 1.47 0.146 3.06 1.63 1.71 2.881-1.75 1.799-4.83 1.954-6.29 4.023 3.8 2.74 8.53 3.377 12.73 5.262 1.43 1.049 4.02 1.142 4.08 3.331-0.39 1.938-2.32 3.064-3.16 4.813 1.83 2.572 5.58 1.183 7.98 2.851 1.3 0.804 0.94 2.524 1.52 3.591 3 2.198 7.23 1.237 10.26-0.523 0.98-0.332 3.66-1.525 1.65-2.396-1.46-0.328-2.68-2.075-1.26-3.191 3.6-2.748 8.54-3.376 11.76-6.763 1.69-1.276-1.23-2.401-2.1-3.128-1.33-0.98-3.63-1.92-3.34-3.879 2.21-3.07 6.45-2.656 9.67-3.997 3.66-0.897 7.2-2.466 10.42-4.323 2.05-1.819 1-4.732 0.3-6.911-3.68-5.169-8.77-9.146-13.09-13.769-5.55-5.422-10.93-11.075-16.58-16.354-2.02-1.285-4.35-2.396-6.76-1.522l-0.18 0.032zm2.16 2.094c5.12 2.418 9.19 6.46 13.81 9.701 1.74 1.561 4.69 2.605 4.6 5.362-1.68 0.402-3.14-1.31-4.74-1.752-1.44-0.487-3.86-2.778-3.46 0.152-0.51 1.057 0.22 4.477-1.16 3.91-1.44-0.612-3.05-1.787-4.57-1.648-2.17 1.479-4.35 2.945-6.51 4.431-0.82-2.658-1.58-5.334-2.38-8-1.05 2.12-1.86 4.65-3.06 6.532-3.26 0.323-6.52 0.645-9.78 0.968 0.03-2.373-0.41-5.061 1.45-6.911 2.94-4.972 8.09-7.964 12.52-11.37 1.09-0.4 2.2-1.175 3.28-1.375zm-12.91 39.75c4.48 1.193 8.99 2.174 13.6 2.719 0.88 1.755-0.32 3.265-2.19 2.406-3.4-0.689-6.8-1.62-10.13-2.531-0.24-0.482-2.89-3.167-1.28-2.594zm42.35 8.844c-1.42 0.396-3.5 0.273-4 2 2.73 0.522 5.67 1.877 8.34 0.438 0.92-1.854-1.81-2.38-3.11-2.481-0.41 0.015-0.82 0.029-1.23 0.043zm-47.72 5.5c-1.09 0.844-3.25 2.891-0.96 3.618 2.11 0.51 3.71-1.294 5.27-2.399-1.11-1.089-2.8-1.501-4.31-1.219zm41.28 0.688c-0.98 1.9 1.79 3.77 3.08 2.091 0.66-1.061-2.22-2.923-3.08-2.091z"/>
              <path id="path12159" fill="url(#linearGradient12611)" d="m137.5 12.562c-5.94 3.322-10.02 8.951-14.91 13.545-5.52 5.694-11.25 11.226-16.63 17.02-0.69 1.105-2.06 3.589-0.07 3.984 4.59 2.415 10.18 2.786 14.36 5.827 0.95 2.32-1.93 3.267-3.47 4.197-1.63 0.512-3.52 2.04-0.79 2.601 4.53 2.443 9.92 3.076 14.07 6.233 1.34 2.187-1.18 4.119-2.1 5.848 0.02 1.79 2.65 1.393 3.89 1.878 2.16 0.166 4.46 1.372 4.68 3.743 0.72 1.877 3.29 1.939 5.03 1.937 2.32-0.293 4.33-1.526 6.44-2.437-0.11-1.454-2.53-1.595-2.22-3.376 1.87-2.993 5.69-3.627 8.55-5.351 1.62-0.703 3.08-1.774 4.17-3.18-1.8-2.138-5.38-2.824-5.73-6.005 0.36-1.114 2.13-2.17 3.38-2.711 5.32-2.009 11.15-2.785 16.03-5.879 2.57-1.039 1.72-4.255 0.97-6.268-2.15-3.024-5.06-5.625-7.51-8.487-2.52-2.587-5.14-5.07-7.7-7.619 1.05 1.533-0.93 2.271-2.08 1.315-1.9-0.831-3.8-1.65-5.74-2.408-0.07 1.665-0.42 3.284-0.78 4.906-2.39 0.642-4.71-2.515-6.89-0.47-1.79 0.994-3.19 2.669-5.11 3.294-1.37-0.249-1.19-3.042-1.89-4.33-0.42-2.891-1.14-2.255-2.01 0.115-0.8 1.499-1.15 3.595-3.32 3.093-2.89 0.287-5.79 0.573-8.68 0.861 0.02-2.98-0.27-6.344 2.09-8.598 3.29-4.651 8.16-7.82 12.7-11.047 1.52-0.706 3.41-1.755 4.82-0.256 3.73 2.557 7.52 4.955 11.01 7.807-2.99-2.83-5.81-5.923-8.91-8.592-1.77-0.88-3.63-1.962-5.65-1.19zm-11.09 40.782c4.68 0.923 9.37 1.878 14.06 2.781 0.19 1.366 0.43 3.643-1.57 3.592-3.91-0.746-7.86-1.834-11.71-2.842-0.58-0.919-2.35-2.318-1.78-3.25 0.32-0.048 0.67-0.333 1-0.281zm40.12 10.468c-1.63 1.019 2.19 1.068 3.07 1.35 1.22 0.352 4.2-0.517 1.9-1.568-1.72-0.377-3.29-0.338-4.97 0.218zm-45.72 5.376c-2.04 1.31-0.17 2.862 1.49 1.593 1.92-0.234 1.96-2.197-0.16-1.924-0.51-0.07-0.94-0.051-1.33 0.331zm41.97 1.062c2.26 2.16 1.72-1.667 0-0.462v0.462z"/>
              <path id="path12161" fill="url(#linearGradient12613)" d="m137.25 10.312c-2.68 0.5-4.58 2.739-6.6 4.404-8.87 8.736-17.53 17.721-26.27 26.565-1.21 2.007-1.91 4.175-2.32 6.469 3.77 1.879 7.59 3.619 11.69 4.627 1 0.624 4.4 0.835 3.28 2.248-2.15 1.146-4.85 1.921-5.78 4.437 1.82 3.199 5.88 3.387 8.89 4.91 2.53 0.999 5.05 1.998 7.58 2.997 0.08 2.64-0.59 1.756-1.92 0.573-2.04-1.034-5.06-1.982-6.66 0.258-1.45 0.885-2.58 3.14-1.47 4.562 2.07 2.248 5.63 1.197 7.55-0.731 0.17-0.179-0.27 2.698 1.34 2.995 2.19 1.262 5 0.909 7.19 2.155 0.42 1.856 1.17 3.958 3.35 4.249 3.44 1.39 7.32 0.367 10.4-1.445 1.32-0.713 3.83-1.241 3.25-3.21-0.04-1.294-3.21-2.074-1.44-3.281 4.25-1.89 8.6-3.884 11.88-7.25 0.8-2.113-2.12-2.994-3.25-4.282-1.36-1.144-3.64-2.366-0.77-3.154 5.28-1.98 11.13-2.756 15.97-5.872 2.56-0.812 3.61-3.71 2.88-6.154-0.03-2.461-1.66-4.498-3.02-6.408-4.76-5.421-10.27-10.135-15.27-15.326-4.35-4.194-8.53-8.649-12.99-12.683-2.25-1.446-4.84-1.918-7.49-1.653zm3.16 6.313c3.97 2.79 7.85 5.746 11.81 8.594-1.22-0.748-2.51-1.211-3.94-1.313-0.2 1.711-0.44 3.416-0.66 5.125-1.85-0.551-3.94-1.667-5.6-0.087-1.22 0.378-3.3 3.085-3.99 2.003-0.94-3.232-1.87-6.466-2.81-9.697-1.43 3.318-2.83 6.647-4.25 9.969-2.41 0.239-4.81 0.479-7.22 0.719-0.01-3.434 2.66-5.996 4.76-8.4 3.09-2.66 6.33-5.258 9.86-7.272 0.69-0.338 1.36 0.235 2.04 0.359zm24.71 45.313c-1.17 0.745-3.07 2.226-1.81 3.687 2.47 1.612 5.54 1.721 8.38 1.814 2.11-0.059 4.19-2.556 2.75-4.473-1.34-2.303-4.39-1.789-6.62-1.765-0.9 0.246-1.8 0.491-2.7 0.737zm-3.09 5.093c-1.19 0.969-1.74 2.664-1.27 4.227 0.41 1.781 2.46 2.237 4.03 1.734 2.35 0.189 3.3-3.167 1.34-4.339-1.16-0.984-2.47-1.964-4.1-1.622z"/>
              <path id="path12163" fill="url(#linearGradient12615)" d="m136.88 9.5625c-5.23 2.2065-8.73 6.8225-12.72 10.654-6.81 6.901-13.66 13.768-20.44 20.69-0.87 2.427-1.72 4.858-2.6 7.282 4.81 2.095 9.64 4.088 14.63 5.718-0.31 1.458-2.75 1.286-3.51 2.682-1.34 0.857-2.22 3.198-0.34 3.98 2.96 2.789 7.04 3.795 10.72 5.307-2.89-0.841-4.81 2.216-5.93 4.375-0.68 2.7 2.42 4.401 4.75 4.009 1.44 0.52 3.43-2.365 3.63-0.13 2.15 2.445 6.28 1.869 8.53 4.16 0.72 2.013 2.39 3.697 4.63 3.718 2.03 0.582 4.01 0.307 5.96-0.393 2.28-0.515 4.45-1.654 6.45-2.79 1.51-1.069 1.18-3.477-0.2-4.512-0.21-1.607 2.3-1.629 3.32-2.492 2.74-1.256 5.15-3.016 7.46-4.914-1.02 1.47-1.41 3.41-0.84 5.082 0.97 2.28 3.84 1.668 5.78 1.543 1.93-0.92 2.68-3.9 0.72-5.187-2.85-1.762-0.41-0.941 1.4-0.432 2.23 0.133 5.03 0.836 6.55-1.331 1.69-1.628 0.63-4.195-0.99-5.456-2.01-1.072-4.43-0.76-6.61-0.656-1.96 0.347-3.45 1.512-4.67 3.031-1.49 1.193 1.72 3.392-0.05 2.951-1.27 0.22 0.29-2.328-1.24-3.158-1-1.463-2.68-2.376-3.93-3.637 6.03-2.916 13.08-3.706 18.47-7.906 1.98-2.346 1.08-5.452 0.5-8.125-3.59-6.548-9.58-11.243-14.73-16.533-5.48-5.337-10.92-10.721-16.42-16.03-2.4-0.963-4.85-1.6272-7.45-1.4936-0.27 0.026-0.58-0.0978-0.83-0.0059zm7.12 10.562c1.42 1.092 2.86 2.165 4.28 3.25-1.31 1.002-0.85 2.932-1.31 4.344-1.96-0.531-4.09-0.602-5.68 0.849-0.99 0.833-2.83 1.755-2.98-0.184-0.88-3.032-1.72-6.08-2.62-9.103 1.53-0.463 3.09-2.937 4.59-1.535l3.72 2.379zm-13.47 10.281c-1.84 0.188-3.69 0.375-5.53 0.563 0.71-3.517 3.62-5.979 6.09-8.337 1.36-0.984 2.63-2.1 4.03-3.007-1.53 3.594-3.06 7.187-4.59 10.781z"/>
            </g>
            <path id="path12165" stroke-width="1pt" fill-rule="evenodd" fill="url(#linearGradient12619)" d="m876.53-143.09c-3.74 0-7.5 1.41-10.36 4.27l-50.85 50.908c-2.81 2.807-4.28 6.474-4.33 10.136v0.228h0.11c0.98 3.707 26.12 8.41 28.93 11.218 4.24 4.241-16.26 7.375-12.02 11.617 4.25 4.241 25.66 8.172 29.9 12.413 4.24 4.242-8.68 8.742-4.44 12.983 4.24 4.242 18.47-1.04 15.89 10.023 5.72 5.727 17.68 2.994 25.68-2.734 4.24-4.241-8.12-3.844-3.87-8.086 4.24-4.241 14.95-4.261 23.97-14.406-3.63-5.648-15.52-8.059-11.28-12.3 4.24-4.242 12.45-2.113 30.24-10.193 8.69-3.945 8.01-6.902 7.97-10.535v-0.228h-0.05c-0.06-3.662-1.47-7.329-4.27-10.136l-50.91-50.908c-2.87-2.86-6.57-4.27-10.31-4.27zm-22.55 79.38c7.58 1.965 16.01 4.509 22.78 4.555l0.28 3.075c-5.79-0.597-18.06-3.421-20.95-4.897l-2.11-2.733zm78.98 13.495c-1.16-0.037-2.25 0.079-3.07 0.285-1.55 0.388-9.09 0.566-8.49 5.41 6.66 2.42 16.96 4.274 18.17-0.57 0.91-3.632-3.14-5.014-6.61-5.125zm-87.06 9.851c-1.05-0.122-2.08 0.007-3.08 0.513-4.01 2.021-6.71 6.513-2.96 8.371 3.74 1.857 6.4-0.258 9.68-2.563 3.28-2.304 3.2-2.755 2.96-3.644-0.45 0.121-3.46-2.31-6.6-2.677zm73.22 0.798c-3.02 1.21-2.99 5.416-0.56 7.231 2.42 1.817 5.45 0.642 6.66-0.569s-0.04-5.452-6.1-6.662z"/>
            <path id="path12167" stroke-width="1pt" fill-rule="evenodd" fill="url(#linearGradient12621)" d="m812.19-83.575c-0.83 1.832-1.28 3.789-1.31 5.751v0.228h0.12c0.93 3.547 23.51 7.981 27.95 10.819 1.97-1.166 3.25-2.388 1.94-3.701-2.81-2.808-27.95-7.511-28.93-11.218h-0.11v-0.228c0.01-0.564 0.27-1.09 0.34-1.651zm129.72 7.403c-1 1.575-2.91 3.176-6.95 5.011-17.79 8.08-25.99 5.951-30.24 10.193-1.28 1.285-0.82 2.383 0.18 3.473 4.49-3.174 12.57-2.062 29.09-9.566 7.51-3.409 7.94-6.105 7.92-9.111zm-87.07 8.314l2.11 2.733c2.89 1.476 15.16 4.3 20.95 4.897l-0.28-3.075c-6.77-0.046-15.2-2.59-22.78-4.555zm-25.11 9.452c-1.9 1.148-3.11 2.354-1.82 3.645 4.24 4.241 25.65 8.172 29.89 12.413 0.19 0.187 0.16 0.382 0.29 0.57 1.32-1.568 2.21-3.145 0.68-4.67-4.09-4.087-23.79-7.892-29.04-11.958zm93.96 10.079c-1.46 0.757-2.64 1.824-2.39 3.758 6.65 2.421 16.95 4.275 18.16-0.569 0.24-0.942 0.11-1.735-0.23-2.392-2.87 2.323-9.99 1.026-15.54-0.797zm-10.48 2.05c-8.35 7.422-17.37 8.201-21.18 12.015-1.54 1.535-0.67 2.373 0.57 3.132 4.86-3.26 14.24-4.222 22.43-13.439-0.42-0.653-1.22-1.133-1.82-1.708zm4.73 7.517c-1.76 1.702-1.53 4.848 0.51 6.377 2.42 1.817 5.45 0.642 6.66-0.569 0.62-0.622 0.54-2.016-0.46-3.417-1.47 0.761-3.41 1.252-5.23-0.114-0.77-0.576-1.22-1.391-1.48-2.277zm-67.14 0.227c-0.2 0.148-0.16 0.176-0.4 0.342-3.28 2.305-5.94 4.42-9.68 2.563-0.78-0.389-1.1-0.966-1.37-1.538-1.66 2.053-2.07 4.412 0.4 5.638 3.75 1.857 6.4-0.258 9.68-2.563 3.29-2.304 3.2-2.755 2.96-3.644-0.15 0.041-0.93-0.425-1.59-0.798zm3.24 4.499c-1.31 1.568-2.2 3.145-0.68 4.669 4.24 4.242 18.47-1.04 15.89 10.022 5.73 5.728 17.68 2.995 25.68-2.733 1.56-1.562 0.66-2.421-0.63-3.189-7.93 5.013-18.71 7.199-24.08 1.823 2.58-11.063-11.65-5.781-15.89-10.023-0.19-0.186-0.16-0.381-0.29-0.569z"/>
            <path id="path12169" d="m901.81-118.46l30.83 33.117s9.18 9.837 1.96 13.772c-7.21 3.934-29.18 9.837-29.18 9.837l-39.93-57.496 36.32 0.77z" fill-opacity=".75" fill-rule="evenodd" stroke-width="1pt" fill="url(#linearGradient12623)"/>
            <path id="path12171" d="m854.35-123.48l-28.86 33.113s-11.15 9.837-3.93 13.771c7.21 3.935 54.76 20.002 88.2 14.1l-38.36-57.384-17.05-3.6z" fill-opacity=".75" fill-rule="evenodd" stroke-width="1pt" fill="url(#linearGradient12625)"/>
            <path id="path12173" stroke-width="1pt" fill-rule="evenodd" fill="url(#linearGradient12627)" d="m877.88-137.44c4.22 0.03 21.96 17.28 27.03 20.84 5.08 3.56 3.89 5.9 3.89 6.12l-14.24-6.89-1.42 10.76-7.86-3.7-12.07 8.09-4.67-15.95-5.92 13.95-16.69 1.65 0.17-7.4 24.65-24.26c1.79-1.76 2.98-3.24 7.13-3.21z"/>
          </g>
        </g>
        <g id="g12175" transform="matrix(.36858 .0028199 -.0028199 .36858 -827.1 -604.51)">
          <path id="path12177" d="m314.11 305.63l86.49-10.41c0.36-0.05 0.68 0.21 0.73 0.57l9.1 76.27c0.05 0.36-0.21 0.69-0.57 0.73l-86.44 10.32c-0.36 0.05-0.69-0.21-0.73-0.57l-9.16-76.18c-0.04-0.36 0.22-0.69 0.58-0.73z" transform="matrix(1.6668 .17434 -.18529 1.6771 19.288 -314.39)" filter="url(#filter5761)" stroke="#000" stroke-miterlimit="0" stroke-width="2.9518" fill="none"/>
          <path id="path12179" d="m481.72 248.73l151.92-0.64c0.64-0.01 1.16 0.5 1.16 1.14l2.3 132.98c0.01 0.64-0.5 1.16-1.14 1.17l-152.74 2.09c-0.64 0-1.16-0.5-1.16-1.14l-1.48-134.43c-0.01-0.64 0.5-1.16 1.14-1.17z" stroke="url(#linearGradient12595)" stroke-miterlimit="0" stroke-width="1.3796" fill="#fff"/>
          <path id="path12181" fill="url(#linearGradient12597)" d="m487.98 253.76l140.69-0.87c0.59-0.01 1.06 0.47 1.07 1.07l0.73 122.7c0 0.6-0.46 1.09-1.05 1.1l-140.04 1.92c-0.58 0.01-1.06-0.47-1.06-1.07l-1.38-123.75c-0.01-0.6 0.46-1.09 1.04-1.1z"/>
          <path id="path12183" fill="url(#linearGradient12599)" d="m492.7 259.7l130.81-0.65c0.54-0.01 0.98 0.33 0.98 0.76l0.67 87.15c0 0.43-0.43 0.77-0.97 0.78l-130.19 1.39c-0.54 0.01-0.98-0.33-0.99-0.76l-1.28-87.89c0-0.43 0.43-0.78 0.97-0.78z"/>
          <g id="g12185" opacity=".48374" transform="matrix(.43462 -.041031 .041031 .43462 178.4 373.93)">
            <g id="g12187" fill="url(#radialGradient12603)" stroke-width="4.431" stroke-dasharray="17.723827, 17.723827" transform="matrix(.87580 0 0 .86928 802.01 -170.83)">
              <path id="path12189" opacity=".69399" transform="matrix(.39407 0 0 .081554 -31.698 94.589)" d="m600 300a300 300 0 1 1 -600 0 300 300 0 1 1 600 0z"/>
              <path id="path12191" transform="matrix(.28066 0 0 .14868 4.0827 91.985)" d="m600 300a300 300 0 1 1 -600 0 300 300 0 1 1 600 0z"/>
            </g>
            <g id="g12193" stroke-width="1pt" fill-opacity=".07438" transform="matrix(1.8222 0 0 1.6627 620.95 -150.6)" fill-rule="evenodd">
              <path id="path12195" fill="url(#linearGradient12605)" d="m139.27 11.077c-2.05 0-4.11 0.772-5.69 2.344l-27.9 27.937c-1.54 1.541-2.35 3.553-2.38 5.563v0.125h0.07c0.53 2.034 14.33 4.615 15.87 6.156 2.33 2.328-8.92 4.048-6.59 6.375 2.32 2.328 14.07 4.485 16.4 6.813 2.33 2.327-4.76 4.797-2.43 7.125 2.32 2.327 10.13-0.572 8.71 5.5 3.15 3.143 9.71 1.643 14.1-1.5 2.33-2.328-4.45-2.11-2.13-4.438 2.33-2.327 8.21-2.338 13.16-7.906-1.99-3.099-8.52-4.423-6.19-6.75 2.33-2.328 6.83-1.16 16.6-5.594 4.76-2.165 4.39-3.788 4.37-5.781v-0.125h-0.03c-0.03-2.01-0.8-4.022-2.34-5.563l-27.94-27.937c-1.57-1.572-3.61-2.344-5.66-2.344zm-0.25 3.625c0.91 0.024 1.65 0.72 3.1 1.656l13.18 9.782c0.15 0.093 0.28 0.181 0.41 0.281s0.27 0.206 0.37 0.312c0.11 0.106 0.19 0.233 0.29 0.344 0.09 0.111 0.17 0.229 0.25 0.344 0.07 0.115 0.13 0.226 0.18 0.344 0.06 0.118 0.09 0.223 0.13 0.343 0.03 0.121 0.07 0.254 0.09 0.375 0.02 0.122 0.03 0.253 0.03 0.375l-7.81-3.781-0.78 5.906-4.31-2.031-6.63 4.438-2.56-8.75-3.25 7.656-9.16 0.906 0.1-4.062c0-0.977 5.29-7.809 8.5-9.438l5.87-4.219c0.87-0.561 1.45-0.795 2-0.781zm-12.12 39.938c4.16 1.078 8.78 2.474 12.5 2.5l0.15 1.687c-3.18-0.328-9.91-1.877-11.5-2.687l-1.15-1.5zm43.34 7.406c-0.63-0.02-1.24 0.043-1.69 0.156-0.85 0.213-4.99 0.311-4.65 2.969 3.65 1.328 9.3 2.345 9.97-0.313 0.49-1.993-1.73-2.751-3.63-2.812zm-47.78 5.406c-0.58-0.067-1.14 0.004-1.69 0.281-2.2 1.11-3.68 3.575-1.62 4.594 2.05 1.02 3.51-0.141 5.31-1.406s1.75-1.512 1.62-2c-0.25 0.066-1.9-1.268-3.62-1.469zm40.19 0.438c-1.66 0.664-1.65 2.972-0.32 3.968 1.33 0.997 3 0.352 3.66-0.312s-0.02-2.992-3.34-3.656z"/>
              <path id="path12197" fill="url(#linearGradient12607)" d="m137.97 10.719c-3.27 0.342-5.52 3.136-7.81 5.222-8.39 8.563-16.96 16.971-25.28 25.588-1.35 1.729-1.9 3.765-2.16 5.909 4.72 3.448 10.98 3.468 16 6.343-1.42 2.233-4.86 2.147-6.41 4.373-1.36 0.912 0.56 2.409 1.57 2.753 4.2 2.119 8.93 2.932 13.1 5.162 2.16 0.154 2.01 2.328 0.58 3.397-1.14 1.144-2.89 3.046-1.16 4.473 2.13 1.477 4.95 1.072 7.32 1.936 1.67 0.914 0.48 2.567 1.62 3.719 2.87 2.246 6.84 1.85 10.03 0.568 1.64-0.483 3.13-1.55 4.57-2.381 1.38-1.613-0.78-2.767-2-3.437-0.81-1.336 1.87-1.873 2.79-2.509 3.5-1.419 6.9-3.063 9.59-5.759 1.68-1.036-0.78-2.51-1.57-3.326-1.45-1.079-3.37-1.744-4.28-3.406 2.36-2.607 6.31-2.121 9.36-3.457 3.66-0.931 7.14-2.559 10.36-4.446 2.13-1.586 1.57-4.347 1.15-6.583-1.51-4.711-6.01-7.512-9.19-11.076-7.15-7.044-14.18-14.224-21.39-21.185-1.93-1.48-4.36-2.272-6.79-1.878zm2.19 5c5.17 3.793 10.36 7.573 15.53 11.375 0.11 1.034-2.72-1.1-3.8-1.39-1.33-0.393-3.66-2.713-3.29 0.032-0.57 1.118 0.29 4.878-1.35 4.013-1.48-0.797-3.45-1.982-4.85-0.355-1.52 1.014-3.04 2.029-4.56 3.044-0.91-3.167-1.83-6.335-2.75-9.5-1.26 2.932-2.49 5.875-3.75 8.812-2.74 0.271-5.48 0.542-8.22 0.812-0.18-2.03 0.26-4.07 1.67-5.51 3.05-4.886 8.12-7.871 12.7-11.124 0.89-0.529 1.69-0.462 2.67-0.209zm-8.1 40.843c2.2 0.57 4.49 0.683 6.72 1.063-0.85 1.017-2.95-0.304-4.28-0.348-1.74-0.381-3.48-0.75-5.12-1.465 0.89 0.25 1.79 0.5 2.68 0.75zm36.44 5.063c-2.02 0.47-4.9 0.744-5.16 3.344 0.67 0.965 2.78 1.324 4.14 1.583 2.13 0.34 5.04 1.107 6.54-0.879 1.28-1.78-0.63-4.045-2.61-3.918-0.97-0.328-1.92-0.252-2.91-0.13zm-47.84 5.531c-1.48 1.017-3.49 2.551-2.85 4.594 1.51 2.193 4.64 1.578 6.37-0.005 1.14-0.65 3.05-1.896 2.16-3.339-1.81-0.788-3.63-1.985-5.68-1.25zm41.59 0.313c-1.26 0.836-1.77 2.587-0.9 3.852 0.67 1.683 2.92 1.859 4.3 0.942 1.83-0.563 1.03-2.915-0.31-3.605-0.68-0.843-2.22-1.252-3.09-1.189z"/>
              <path id="path12199" fill="url(#linearGradient12609)" d="m137.09 12.062c-3.64 1.596-6.19 4.993-9.06 7.698-7.38 7.517-14.91 14.908-22.21 22.485-1.05 1.339-1.62 2.868-1.88 4.536 4.08 2.881 9.41 3.033 13.83 5.253 1.47 0.146 3.06 1.63 1.71 2.881-1.75 1.799-4.83 1.954-6.29 4.023 3.8 2.74 8.53 3.377 12.73 5.262 1.43 1.049 4.02 1.142 4.08 3.331-0.39 1.938-2.32 3.064-3.16 4.813 1.83 2.572 5.58 1.183 7.98 2.851 1.3 0.804 0.94 2.524 1.52 3.591 3 2.198 7.23 1.237 10.26-0.523 0.98-0.332 3.66-1.525 1.65-2.396-1.46-0.328-2.68-2.075-1.26-3.191 3.6-2.748 8.54-3.376 11.76-6.763 1.69-1.276-1.23-2.401-2.1-3.128-1.33-0.98-3.63-1.92-3.34-3.879 2.21-3.07 6.45-2.656 9.67-3.997 3.66-0.897 7.2-2.466 10.42-4.323 2.05-1.819 1-4.732 0.3-6.911-3.68-5.169-8.77-9.146-13.09-13.769-5.55-5.422-10.93-11.075-16.58-16.354-2.02-1.285-4.35-2.396-6.76-1.522l-0.18 0.032zm2.16 2.094c5.12 2.418 9.19 6.46 13.81 9.701 1.74 1.561 4.69 2.605 4.6 5.362-1.68 0.402-3.14-1.31-4.74-1.752-1.44-0.487-3.86-2.778-3.46 0.152-0.51 1.057 0.22 4.477-1.16 3.91-1.44-0.612-3.05-1.787-4.57-1.648-2.17 1.479-4.35 2.945-6.51 4.431-0.82-2.658-1.58-5.334-2.38-8-1.05 2.12-1.86 4.65-3.06 6.532-3.26 0.323-6.52 0.645-9.78 0.968 0.03-2.373-0.41-5.061 1.45-6.911 2.94-4.972 8.09-7.964 12.52-11.37 1.09-0.4 2.2-1.175 3.28-1.375zm-12.91 39.75c4.48 1.193 8.99 2.174 13.6 2.719 0.88 1.755-0.32 3.265-2.19 2.406-3.4-0.689-6.8-1.62-10.13-2.531-0.24-0.482-2.89-3.167-1.28-2.594zm42.35 8.844c-1.42 0.396-3.5 0.273-4 2 2.73 0.522 5.67 1.877 8.34 0.438 0.92-1.854-1.81-2.38-3.11-2.481-0.41 0.015-0.82 0.029-1.23 0.043zm-47.72 5.5c-1.09 0.844-3.25 2.891-0.96 3.618 2.11 0.51 3.71-1.294 5.27-2.399-1.11-1.089-2.8-1.501-4.31-1.219zm41.28 0.688c-0.98 1.9 1.79 3.77 3.08 2.091 0.66-1.061-2.22-2.923-3.08-2.091z"/>
              <path id="path12201" fill="url(#linearGradient12611)" d="m137.5 12.562c-5.94 3.322-10.02 8.951-14.91 13.545-5.52 5.694-11.25 11.226-16.63 17.02-0.69 1.105-2.06 3.589-0.07 3.984 4.59 2.415 10.18 2.786 14.36 5.827 0.95 2.32-1.93 3.267-3.47 4.197-1.63 0.512-3.52 2.04-0.79 2.601 4.53 2.443 9.92 3.076 14.07 6.233 1.34 2.187-1.18 4.119-2.1 5.848 0.02 1.79 2.65 1.393 3.89 1.878 2.16 0.166 4.46 1.372 4.68 3.743 0.72 1.877 3.29 1.939 5.03 1.937 2.32-0.293 4.33-1.526 6.44-2.437-0.11-1.454-2.53-1.595-2.22-3.376 1.87-2.993 5.69-3.627 8.55-5.351 1.62-0.703 3.08-1.774 4.17-3.18-1.8-2.138-5.38-2.824-5.73-6.005 0.36-1.114 2.13-2.17 3.38-2.711 5.32-2.009 11.15-2.785 16.03-5.879 2.57-1.039 1.72-4.255 0.97-6.268-2.15-3.024-5.06-5.625-7.51-8.487-2.52-2.587-5.14-5.07-7.7-7.619 1.05 1.533-0.93 2.271-2.08 1.315-1.9-0.831-3.8-1.65-5.74-2.408-0.07 1.665-0.42 3.284-0.78 4.906-2.39 0.642-4.71-2.515-6.89-0.47-1.79 0.994-3.19 2.669-5.11 3.294-1.37-0.249-1.19-3.042-1.89-4.33-0.42-2.891-1.14-2.255-2.01 0.115-0.8 1.499-1.15 3.595-3.32 3.093-2.89 0.287-5.79 0.573-8.68 0.861 0.02-2.98-0.27-6.344 2.09-8.598 3.29-4.651 8.16-7.82 12.7-11.047 1.52-0.706 3.41-1.755 4.82-0.256 3.73 2.557 7.52 4.955 11.01 7.807-2.99-2.83-5.81-5.923-8.91-8.592-1.77-0.88-3.63-1.962-5.65-1.19zm-11.09 40.782c4.68 0.923 9.37 1.878 14.06 2.781 0.19 1.366 0.43 3.643-1.57 3.592-3.91-0.746-7.86-1.834-11.71-2.842-0.58-0.919-2.35-2.318-1.78-3.25 0.32-0.048 0.67-0.333 1-0.281zm40.12 10.468c-1.63 1.019 2.19 1.068 3.07 1.35 1.22 0.352 4.2-0.517 1.9-1.568-1.72-0.377-3.29-0.338-4.97 0.218zm-45.72 5.376c-2.04 1.31-0.17 2.862 1.49 1.593 1.92-0.234 1.96-2.197-0.16-1.924-0.51-0.07-0.94-0.051-1.33 0.331zm41.97 1.062c2.26 2.16 1.72-1.667 0-0.462v0.462z"/>
              <path id="path12203" fill="url(#linearGradient12613)" d="m137.25 10.312c-2.68 0.5-4.58 2.739-6.6 4.404-8.87 8.736-17.53 17.721-26.27 26.565-1.21 2.007-1.91 4.175-2.32 6.469 3.77 1.879 7.59 3.619 11.69 4.627 1 0.624 4.4 0.835 3.28 2.248-2.15 1.146-4.85 1.921-5.78 4.437 1.82 3.199 5.88 3.387 8.89 4.91 2.53 0.999 5.05 1.998 7.58 2.997 0.08 2.64-0.59 1.756-1.92 0.573-2.04-1.034-5.06-1.982-6.66 0.258-1.45 0.885-2.58 3.14-1.47 4.562 2.07 2.248 5.63 1.197 7.55-0.731 0.17-0.179-0.27 2.698 1.34 2.995 2.19 1.262 5 0.909 7.19 2.155 0.42 1.856 1.17 3.958 3.35 4.249 3.44 1.39 7.32 0.367 10.4-1.445 1.32-0.713 3.83-1.241 3.25-3.21-0.04-1.294-3.21-2.074-1.44-3.281 4.25-1.89 8.6-3.884 11.88-7.25 0.8-2.113-2.12-2.994-3.25-4.282-1.36-1.144-3.64-2.366-0.77-3.154 5.28-1.98 11.13-2.756 15.97-5.872 2.56-0.812 3.61-3.71 2.88-6.154-0.03-2.461-1.66-4.498-3.02-6.408-4.76-5.421-10.27-10.135-15.27-15.326-4.35-4.194-8.53-8.649-12.99-12.683-2.25-1.446-4.84-1.918-7.49-1.653zm3.16 6.313c3.97 2.79 7.85 5.746 11.81 8.594-1.22-0.748-2.51-1.211-3.94-1.313-0.2 1.711-0.44 3.416-0.66 5.125-1.85-0.551-3.94-1.667-5.6-0.087-1.22 0.378-3.3 3.085-3.99 2.003-0.94-3.232-1.87-6.466-2.81-9.697-1.43 3.318-2.83 6.647-4.25 9.969-2.41 0.239-4.81 0.479-7.22 0.719-0.01-3.434 2.66-5.996 4.76-8.4 3.09-2.66 6.33-5.258 9.86-7.272 0.69-0.338 1.36 0.235 2.04 0.359zm24.71 45.313c-1.17 0.745-3.07 2.226-1.81 3.687 2.47 1.612 5.54 1.721 8.38 1.814 2.11-0.059 4.19-2.556 2.75-4.473-1.34-2.303-4.39-1.789-6.62-1.765-0.9 0.246-1.8 0.491-2.7 0.737zm-3.09 5.093c-1.19 0.969-1.74 2.664-1.27 4.227 0.41 1.781 2.46 2.237 4.03 1.734 2.35 0.189 3.3-3.167 1.34-4.339-1.16-0.984-2.47-1.964-4.1-1.622z"/>
              <path id="path12205" fill="url(#linearGradient12615)" d="m136.88 9.5625c-5.23 2.2065-8.73 6.8225-12.72 10.654-6.81 6.901-13.66 13.768-20.44 20.69-0.87 2.427-1.72 4.858-2.6 7.282 4.81 2.095 9.64 4.088 14.63 5.718-0.31 1.458-2.75 1.286-3.51 2.682-1.34 0.857-2.22 3.198-0.34 3.98 2.96 2.789 7.04 3.795 10.72 5.307-2.89-0.841-4.81 2.216-5.93 4.375-0.68 2.7 2.42 4.401 4.75 4.009 1.44 0.52 3.43-2.365 3.63-0.13 2.15 2.445 6.28 1.869 8.53 4.16 0.72 2.013 2.39 3.697 4.63 3.718 2.03 0.582 4.01 0.307 5.96-0.393 2.28-0.515 4.45-1.654 6.45-2.79 1.51-1.069 1.18-3.477-0.2-4.512-0.21-1.607 2.3-1.629 3.32-2.492 2.74-1.256 5.15-3.016 7.46-4.914-1.02 1.47-1.41 3.41-0.84 5.082 0.97 2.28 3.84 1.668 5.78 1.543 1.93-0.92 2.68-3.9 0.72-5.187-2.85-1.762-0.41-0.941 1.4-0.432 2.23 0.133 5.03 0.836 6.55-1.331 1.69-1.628 0.63-4.195-0.99-5.456-2.01-1.072-4.43-0.76-6.61-0.656-1.96 0.347-3.45 1.512-4.67 3.031-1.49 1.193 1.72 3.392-0.05 2.951-1.27 0.22 0.29-2.328-1.24-3.158-1-1.463-2.68-2.376-3.93-3.637 6.03-2.916 13.08-3.706 18.47-7.906 1.98-2.346 1.08-5.452 0.5-8.125-3.59-6.548-9.58-11.243-14.73-16.533-5.48-5.337-10.92-10.721-16.42-16.03-2.4-0.963-4.85-1.6272-7.45-1.4936-0.27 0.026-0.58-0.0978-0.83-0.0059zm7.12 10.562c1.42 1.092 2.86 2.165 4.28 3.25-1.31 1.002-0.85 2.932-1.31 4.344-1.96-0.531-4.09-0.602-5.68 0.849-0.99 0.833-2.83 1.755-2.98-0.184-0.88-3.032-1.72-6.08-2.62-9.103 1.53-0.463 3.09-2.937 4.59-1.535l3.72 2.379zm-13.47 10.281c-1.84 0.188-3.69 0.375-5.53 0.563 0.71-3.517 3.62-5.979 6.09-8.337 1.36-0.984 2.63-2.1 4.03-3.007-1.53 3.594-3.06 7.187-4.59 10.781z"/>
            </g>
            <path id="path12207" stroke-width="1pt" fill-rule="evenodd" fill="url(#linearGradient12619)" d="m876.53-143.09c-3.74 0-7.5 1.41-10.36 4.27l-50.85 50.908c-2.81 2.807-4.28 6.474-4.33 10.136v0.228h0.11c0.98 3.707 26.12 8.41 28.93 11.218 4.24 4.241-16.26 7.375-12.02 11.617 4.25 4.241 25.66 8.172 29.9 12.413 4.24 4.242-8.68 8.742-4.44 12.983 4.24 4.242 18.47-1.04 15.89 10.023 5.72 5.727 17.68 2.994 25.68-2.734 4.24-4.241-8.12-3.844-3.87-8.086 4.24-4.241 14.95-4.261 23.97-14.406-3.63-5.648-15.52-8.059-11.28-12.3 4.24-4.242 12.45-2.113 30.24-10.193 8.69-3.945 8.01-6.902 7.97-10.535v-0.228h-0.05c-0.06-3.662-1.47-7.329-4.27-10.136l-50.91-50.908c-2.87-2.86-6.57-4.27-10.31-4.27zm-22.55 79.38c7.58 1.965 16.01 4.509 22.78 4.555l0.28 3.075c-5.79-0.597-18.06-3.421-20.95-4.897l-2.11-2.733zm78.98 13.495c-1.16-0.037-2.25 0.079-3.07 0.285-1.55 0.388-9.09 0.566-8.49 5.41 6.66 2.42 16.96 4.274 18.17-0.57 0.91-3.632-3.14-5.014-6.61-5.125zm-87.06 9.851c-1.05-0.122-2.08 0.007-3.08 0.513-4.01 2.021-6.71 6.513-2.96 8.371 3.74 1.857 6.4-0.258 9.68-2.563 3.28-2.304 3.2-2.755 2.96-3.644-0.45 0.121-3.46-2.31-6.6-2.677zm73.22 0.798c-3.02 1.21-2.99 5.416-0.56 7.231 2.42 1.817 5.45 0.642 6.66-0.569s-0.04-5.452-6.1-6.662z"/>
            <path id="path12209" stroke-width="1pt" fill-rule="evenodd" fill="url(#linearGradient12621)" d="m812.19-83.575c-0.83 1.832-1.28 3.789-1.31 5.751v0.228h0.12c0.93 3.547 23.51 7.981 27.95 10.819 1.97-1.166 3.25-2.388 1.94-3.701-2.81-2.808-27.95-7.511-28.93-11.218h-0.11v-0.228c0.01-0.564 0.27-1.09 0.34-1.651zm129.72 7.403c-1 1.575-2.91 3.176-6.95 5.011-17.79 8.08-25.99 5.951-30.24 10.193-1.28 1.285-0.82 2.383 0.18 3.473 4.49-3.174 12.57-2.062 29.09-9.566 7.51-3.409 7.94-6.105 7.92-9.111zm-87.07 8.314l2.11 2.733c2.89 1.476 15.16 4.3 20.95 4.897l-0.28-3.075c-6.77-0.046-15.2-2.59-22.78-4.555zm-25.11 9.452c-1.9 1.148-3.11 2.354-1.82 3.645 4.24 4.241 25.65 8.172 29.89 12.413 0.19 0.187 0.16 0.382 0.29 0.57 1.32-1.568 2.21-3.145 0.68-4.67-4.09-4.087-23.79-7.892-29.04-11.958zm93.96 10.079c-1.46 0.757-2.64 1.824-2.39 3.758 6.65 2.421 16.95 4.275 18.16-0.569 0.24-0.942 0.11-1.735-0.23-2.392-2.87 2.323-9.99 1.026-15.54-0.797zm-10.48 2.05c-8.35 7.422-17.37 8.201-21.18 12.015-1.54 1.535-0.67 2.373 0.57 3.132 4.86-3.26 14.24-4.222 22.43-13.439-0.42-0.653-1.22-1.133-1.82-1.708zm4.73 7.517c-1.76 1.702-1.53 4.848 0.51 6.377 2.42 1.817 5.45 0.642 6.66-0.569 0.62-0.622 0.54-2.016-0.46-3.417-1.47 0.761-3.41 1.252-5.23-0.114-0.77-0.576-1.22-1.391-1.48-2.277zm-67.14 0.227c-0.2 0.148-0.16 0.176-0.4 0.342-3.28 2.305-5.94 4.42-9.68 2.563-0.78-0.389-1.1-0.966-1.37-1.538-1.66 2.053-2.07 4.412 0.4 5.638 3.75 1.857 6.4-0.258 9.68-2.563 3.29-2.304 3.2-2.755 2.96-3.644-0.15 0.041-0.93-0.425-1.59-0.798zm3.24 4.499c-1.31 1.568-2.2 3.145-0.68 4.669 4.24 4.242 18.47-1.04 15.89 10.022 5.73 5.728 17.68 2.995 25.68-2.733 1.56-1.562 0.66-2.421-0.63-3.189-7.93 5.013-18.71 7.199-24.08 1.823 2.58-11.063-11.65-5.781-15.89-10.023-0.19-0.186-0.16-0.381-0.29-0.569z"/>
            <path id="path12211" d="m901.81-118.46l30.83 33.117s9.18 9.837 1.96 13.772c-7.21 3.934-29.18 9.837-29.18 9.837l-39.93-57.496 36.32 0.77z" fill-opacity=".75" fill-rule="evenodd" stroke-width="1pt" fill="url(#linearGradient12623)"/>
            <path id="path12213" d="m854.35-123.48l-28.86 33.113s-11.15 9.837-3.93 13.771c7.21 3.935 54.76 20.002 88.2 14.1l-38.36-57.384-17.05-3.6z" fill-opacity=".75" fill-rule="evenodd" stroke-width="1pt" fill="url(#linearGradient12625)"/>
            <path id="path12215" stroke-width="1pt" fill-rule="evenodd" fill="url(#linearGradient12627)" d="m877.88-137.44c4.22 0.03 21.96 17.28 27.03 20.84 5.08 3.56 3.89 5.9 3.89 6.12l-14.24-6.89-1.42 10.76-7.86-3.7-12.07 8.09-4.67-15.95-5.92 13.95-16.69 1.65 0.17-7.4 24.65-24.26c1.79-1.76 2.98-3.24 7.13-3.21z"/>
          </g>
        </g>
        <g id="g12217" transform="matrix(.76710 0 0 1 -290.97 -403.15)">
          <path id="path12219" stroke="url(#linearGradient12631)" stroke-width="1.5" fill="url(#linearGradient12629)" d="m-477.4-80.856l134.94-13.381c1.49-0.147 2.24 0.689 1.67 1.875l-15.73 61.762c-0.57 1.186-2.23 2.259-3.72 2.406l-133.58 13.175c-1.5 0.148-2.24-0.689-1.68-1.875l14.38-61.556c0.57-1.186 2.23-2.259 3.72-2.406z"/>
          <path id="path12221" opacity=".80488" fill="url(#linearGradient12633)" d="m-350.51-56.712c-44.06 4.453-101.95 10.275-137.28 13.688l-5.91 25.218c-0.55 1.167 0.19 1.989 1.66 1.844l131.41-12.969c1.46-0.145 3.09-1.208 3.65-2.375l6.47-25.406z"/>
          <path id="path12223" opacity=".82114" fill="url(#linearGradient12635)" d="m-476.72-80.098l132.75-13.163c1.47-0.145 2.2 0.678 1.65 1.844l-15.49 60.761c-0.55 1.166-2.19 2.222-3.65 2.367l-131.42 12.961c-1.47 0.145-2.2-0.677-1.65-1.844l14.15-60.558c0.56-1.167 2.19-2.223 3.66-2.368z"/>
          <path id="path12225" opacity=".51626" fill="url(#linearGradient12637)" d="m-343.13-93.482l-132.75 13.156c-1.47 0.145-3.1 1.209-3.66 2.375l-8.09 34.625c17.47-8.015 37.19-14.444 54.18-16.312 38.02-4.177 64.41-6.536 89.88-23.875l2.06-8.125c0.56-1.167-0.15-1.989-1.62-1.844z"/>
          <path id="path12227" d="m-357.25-31.25c-0.56 1.148-2.2 2.187-3.67 2.329l-131.97 12.754c-1.48 0.142-2.21-0.667-1.65-1.815l14.2-59.586c0.56-1.147 2.2-2.186 3.68-2.329" filter="url(#filter3500)" stroke="url(#linearGradient12639)" stroke-width="1.4669" fill="none"/>
          <path id="path12229" d="m-478.57-79.88l134.94-13.381c1.5-0.147 2.24 0.689 1.68 1.875l-15.74 61.762" filter="url(#filter3530)" stroke="url(#linearGradient12641)" stroke-width="1.5" fill="none"/>
        </g>
      </g>
      <rect id="rect12231" ry="1.5435" height="148.65" width="148.65" y="-542.11" x="-692.13" fill="none"/>
    </g>
  </g>
  <metadata>
    <rdf:RDF>
      <cc:Work>
        <dc:format>image/svg+xml</dc:format>
        <dc:type rdf:resource="http://purl.org/dc/dcmitype/StillImage"/>
        <cc:license rdf:resource="http://creativecommons.org/licenses/publicdomain/"/>
        <dc:publisher>
          <cc:Agent rdf:about="http://openclipart.org/">
            <dc:title>Openclipart</dc:title>
          </cc:Agent>
        </dc:publisher>
        <dc:title>Simple Folder Photos</dc:title>
        <dc:date>2008-02-12T17:31:24</dc:date>
        <dc:description>clip art, clipart, folder, folder, graphics, graphics, icon, icon, image, inkscape, inkscape, media, my pictures, my pictures, office, office, photo, photo, picture, picture, pictures, pictures, png, public domain, svg, </dc:description>
        <dc:source>http://openclipart.org/detail/13738/simple-folder-photos-by-sarxos</dc:source>
        <dc:creator>
          <cc:Agent>
            <dc:title>sarxos</dc:title>
          </cc:Agent>
        </dc:creator>
        <dc:subject>
          <rdf:Bag>
            <rdf:li>clip art</rdf:li>
            <rdf:li>clipart</rdf:li>
            <rdf:li>folder</rdf:li>
            <rdf:li>graphics</rdf:li>
            <rdf:li>icon</rdf:li>
            <rdf:li>image</rdf:li>
            <rdf:li>inkscape</rdf:li>
            <rdf:li>media</rdf:li>
            <rdf:li>my pictures</rdf:li>
            <rdf:li>office</rdf:li>
            <rdf:li>photo</rdf:li>
            <rdf:li>picture</rdf:li>
            <rdf:li>pictures</rdf:li>
            <rdf:li>png</rdf:li>
            <rdf:li>public domain</rdf:li>
            <rdf:li>svg</rdf:li>
          </rdf:Bag>
        </dc:subject>
      </cc:Work>
      <cc:License rdf:about="http://creativecommons.org/licenses/publicdomain/">
        <cc:permits rdf:resource="http://creativecommons.org/ns#Reproduction"/>
        <cc:permits rdf:resource="http://creativecommons.org/ns#Distribution"/>
        <cc:permits rdf:resource="http://creativecommons.org/ns#DerivativeWorks"/>
      </cc:License>
    </rdf:RDF>
  </metadata>
</svg>
